# Blender 3.5.1
# www.blender.org
mtllib arm_h_link_tube.mtl
o arm_h_link_tube
v 0.000000 -0.000000 -0.098658
v 0.000000 0.026620 -0.047317
v 0.000000 -0.026620 -0.047317
v -0.026620 -0.000000 -0.047317
v 0.013310 -0.023054 -0.047317
v -0.023054 0.013310 -0.047317
v 0.023054 -0.013310 -0.047317
v -0.023054 -0.013310 -0.047317
v 0.026620 0.000000 -0.047317
v -0.013310 -0.023054 -0.047317
v 0.023054 0.013310 -0.047317
v -0.013310 0.023054 -0.047317
v 0.013310 0.023054 -0.047317
v -0.000000 -0.000000 0.098658
v -0.000000 0.026620 0.047317
v -0.000000 -0.026620 0.047317
v -0.026620 -0.000000 0.047317
v 0.013310 -0.023054 0.047317
v -0.023054 0.013310 0.047317
v 0.023054 -0.013310 0.047317
v -0.023054 -0.013310 0.047317
v 0.026620 0.000000 0.047317
v -0.013310 -0.023054 0.047317
v 0.023054 0.013310 0.047317
v -0.013310 0.023054 0.047317
v 0.013310 0.023054 0.047317
v 0.033520 0.019353 -0.033520
v 0.019353 0.033520 -0.019353
v 0.000000 -0.038706 -0.046433
v -0.000000 -0.038706 0.046433
v 0.019353 -0.033520 -0.046433
v 0.019353 -0.033520 0.046433
v 0.033520 -0.019353 -0.046433
v 0.033520 -0.019353 0.046433
v 0.038706 0.000000 -0.046433
v 0.038706 0.000000 0.046433
v 0.033520 0.019353 -0.046433
v 0.033520 0.019353 0.046433
v 0.019353 0.033520 -0.046433
v 0.019353 0.033520 0.046433
v 0.000000 0.038706 -0.046433
v -0.000000 0.038706 0.046433
v -0.019353 0.033520 -0.046433
v -0.019353 0.033520 0.046433
v -0.033520 0.019353 -0.046433
v -0.033520 0.019353 0.046433
v -0.038706 -0.000000 -0.046433
v -0.038706 -0.000000 0.046433
v -0.033520 -0.019353 -0.046433
v -0.033520 -0.019353 0.046433
v -0.019353 -0.033520 -0.046433
v -0.019353 -0.033520 0.046433
v 0.000000 -0.038706 0.000000
v 0.033520 -0.019353 0.033520
v 0.038706 0.000000 0.038706
v 0.033520 0.019353 0.033520
v 0.019353 0.033520 0.019353
v 0.825119 0.000000 0.000000
v -0.000000 0.038706 0.000000
v 0.019353 -0.033520 0.019353
v 0.019353 -0.033520 -0.019353
v 0.033520 -0.019353 -0.033520
v 0.038706 0.000000 -0.038706
v 0.154824 0.015346 0.026580
v 0.154824 0.000000 0.030692
v 0.154824 -0.015346 0.026580
v 0.154824 0.026580 0.015346
v 0.154824 -0.026580 0.015346
v 0.154824 -0.030692 0.000000
v 0.154824 -0.026580 -0.015346
v 0.154824 0.030692 0.000000
v 0.154824 -0.015346 -0.026580
v 0.154824 0.000000 -0.030692
v 0.154824 0.015346 -0.026580
v 0.154824 0.026580 -0.015346
v 0.825119 0.015346 0.026580
v 0.825119 0.000000 0.030692
v 0.825119 -0.015346 0.026580
v 0.825119 0.026580 0.015346
v 0.825119 -0.026580 0.015346
v 0.825119 -0.030692 0.000000
v 0.825119 -0.026580 -0.015346
v 0.825119 0.030692 0.000000
v 0.825119 -0.015346 -0.026580
v 0.825119 0.000000 -0.030692
v 0.825119 0.015346 -0.026580
v 0.825119 0.026580 -0.015346
v 0.000000 0.026106 -0.084845
v 0.000000 -0.026106 -0.084845
v -0.026106 -0.000000 -0.084845
v 0.013053 -0.022609 -0.084845
v -0.022609 0.013053 -0.084845
v 0.022609 -0.013053 -0.084845
v -0.022609 -0.013053 -0.084845
v 0.026106 0.000000 -0.084845
v -0.013053 -0.022609 -0.084845
v 0.022609 0.013053 -0.084845
v -0.013053 0.022609 -0.084845
v 0.013053 0.022609 -0.084845
v -0.000000 0.026106 0.084845
v -0.000000 -0.026106 0.084845
v -0.026106 -0.000000 0.084845
v 0.013053 -0.022609 0.084845
v -0.022609 0.013053 0.084845
v 0.022609 -0.013053 0.084845
v -0.022609 -0.013053 0.084845
v 0.026106 0.000000 0.084845
v -0.013053 -0.022609 0.084845
v 0.022609 0.013053 0.084845
v -0.013053 0.022609 0.084845
v 0.013053 0.022609 0.084845
v 0.000000 0.026106 -0.098658
v 0.000000 -0.026106 -0.098658
v -0.026106 -0.000000 -0.098658
v 0.013053 -0.022609 -0.098658
v -0.022609 0.013053 -0.098658
v 0.022609 -0.013053 -0.098658
v -0.022609 -0.013053 -0.098658
v 0.026106 0.000000 -0.098658
v -0.013053 -0.022609 -0.098658
v 0.022609 0.013053 -0.098658
v -0.013053 0.022609 -0.098658
v 0.013053 0.022609 -0.098658
v -0.000000 0.026106 0.098658
v -0.000000 -0.026106 0.098658
v -0.026106 -0.000000 0.098658
v 0.013053 -0.022609 0.098658
v -0.022609 0.013053 0.098658
v 0.022609 -0.013053 0.098658
v -0.022609 -0.013053 0.098658
v 0.026106 0.000000 0.098658
v -0.013053 -0.022609 0.098658
v 0.022609 0.013053 0.098658
v -0.013053 0.022609 0.098658
v 0.013053 0.022609 0.098658
v 0.685767 0.015346 -0.026580
v 0.685767 0.026580 -0.015346
v 0.685767 0.030692 0.000000
v 0.685767 0.026580 0.015346
v 0.685767 0.015346 0.026580
v 0.685767 0.000000 0.030692
v 0.685767 -0.015346 0.026580
v 0.685767 -0.026580 0.015346
v 0.685767 -0.030692 0.000000
v 0.685767 -0.026580 -0.015346
v 0.685767 -0.015346 -0.026580
v 0.685767 0.000000 -0.030692
v 0.793814 0.000000 -0.030692
v 0.793814 0.015346 -0.026580
v 0.793814 0.026580 -0.015346
v 0.793814 0.030692 0.000000
v 0.793814 0.026580 0.015346
v 0.793814 0.015346 0.026580
v 0.793814 0.000000 0.030692
v 0.793814 -0.015346 0.026580
v 0.793814 -0.026580 0.015346
v 0.793814 -0.030692 0.000000
v 0.793814 -0.026580 -0.015346
v 0.793814 -0.015346 -0.026580
v 0.697621 0.000000 -0.030692
v 0.697621 0.015346 -0.026580
v 0.697621 0.026580 -0.015346
v 0.697621 0.030692 0.000000
v 0.697621 0.026580 0.015346
v 0.697621 0.015346 0.026580
v 0.697621 0.000000 0.030692
v 0.697621 -0.015346 0.026580
v 0.697621 -0.026580 0.015346
v 0.697621 -0.030692 0.000000
v 0.697621 -0.026580 -0.015346
v 0.697621 -0.015346 -0.026580
v 0.793814 -0.017313 -0.029987
v 0.793814 0.000000 -0.034626
v 0.735198 -0.020005 -0.034649
v 0.788613 0.000000 -0.040009
v 0.735198 0.000000 -0.040009
v 0.788613 0.020005 -0.034649
v 0.793814 0.017313 -0.029987
v 0.735198 0.020005 -0.034649
v 0.788613 0.034649 -0.020005
v 0.793814 0.029987 -0.017313
v 0.735198 0.034649 -0.020005
v 0.788613 0.040009 0.000000
v 0.793814 0.034626 0.000000
v 0.735198 0.040009 0.000000
v 0.788613 0.034649 0.020005
v 0.793814 0.029987 0.017313
v 0.735198 0.034649 0.020005
v 0.788613 0.020005 0.034649
v 0.793814 0.017313 0.029987
v 0.735198 0.020005 0.034649
v 0.788613 0.000000 0.040009
v 0.793814 0.000000 0.034626
v 0.735198 0.000000 0.040009
v 0.788613 -0.020005 0.034649
v 0.793814 -0.017313 0.029987
v 0.735198 -0.020005 0.034649
v 0.788613 -0.034649 0.020005
v 0.793814 -0.029987 0.017313
v 0.735198 -0.034649 0.020005
v 0.788613 -0.040009 0.000000
v 0.793814 -0.034626 0.000000
v 0.735198 -0.040009 0.000000
v 0.788613 -0.034649 -0.020005
v 0.793814 -0.029987 -0.017313
v 0.735198 -0.034649 -0.020005
v 0.788613 -0.020005 -0.034649
v 0.697621 0.000000 -0.034626
v 0.697621 0.017313 -0.029987
v 0.697621 0.029987 -0.017313
v 0.697621 0.034626 0.000000
v 0.697621 0.029987 0.017313
v 0.697621 0.017313 0.029987
v 0.697621 0.000000 0.034626
v 0.697621 -0.017313 0.029987
v 0.697621 -0.029987 0.017313
v 0.697621 -0.034626 0.000000
v 0.697621 -0.029987 -0.017313
v 0.697621 -0.017313 -0.029987
v 0.154824 0.017231 0.029844
v 0.154824 0.029844 0.017231
v 0.150724 0.000000 0.038706
v 0.150724 0.019353 0.033520
v 0.154824 0.000000 0.034461
v 0.150724 -0.019353 0.033520
v 0.150724 0.033520 -0.019353
v 0.154824 -0.017231 0.029844
v 0.150724 -0.033520 0.019353
v 0.150724 0.038706 0.000000
v 0.154824 0.034461 0.000000
v 0.150724 0.033520 0.019353
v 0.154824 -0.029844 0.017231
v 0.150724 -0.038706 0.000000
v 0.154824 -0.034461 0.000000
v 0.150724 -0.033520 -0.019353
v 0.154824 -0.029844 -0.017231
v 0.150724 -0.019353 -0.033520
v 0.154824 0.029844 -0.017231
v 0.154824 -0.017231 -0.029844
v 0.150724 0.000000 -0.038706
v 0.154824 0.000000 -0.034461
v 0.150724 0.019353 -0.033520
v 0.154824 0.017231 -0.029844
v 0.000000 0.040600 -0.084845
v 0.000000 -0.040600 -0.084845
v -0.040600 -0.000000 -0.084845
v 0.020300 -0.035161 -0.084845
v -0.035161 0.020300 -0.084845
v 0.035161 -0.020300 -0.084845
v -0.035161 -0.020300 -0.084845
v 0.040600 0.000000 -0.084845
v -0.020300 -0.035161 -0.084845
v 0.035161 0.020300 -0.084845
v -0.020300 0.035161 -0.084845
v 0.020300 0.035161 -0.084845
v 0.000000 0.040600 -0.098658
v 0.000000 -0.040600 -0.098658
v -0.040600 -0.000000 -0.098658
v 0.020300 -0.035161 -0.098658
v -0.035161 0.020300 -0.098658
v 0.035161 -0.020300 -0.098658
v -0.035161 -0.020300 -0.098658
v 0.040600 0.000000 -0.098658
v -0.020300 -0.035161 -0.098658
v 0.035161 0.020300 -0.098658
v -0.020300 0.035161 -0.098658
v 0.020300 0.035161 -0.098658
v -0.000000 0.040600 0.084845
v -0.000000 -0.040600 0.084845
v -0.040600 -0.000000 0.084845
v 0.020300 -0.035161 0.084845
v -0.035161 0.020300 0.084845
v 0.035161 -0.020300 0.084845
v -0.035161 -0.020300 0.084845
v 0.040600 0.000000 0.084845
v -0.020300 -0.035161 0.084845
v 0.035161 0.020300 0.084845
v -0.020300 0.035161 0.084845
v 0.020300 0.035161 0.084845
v -0.000000 0.040600 0.098658
v -0.000000 -0.040600 0.098658
v -0.040600 -0.000000 0.098658
v 0.020300 -0.035161 0.098658
v -0.035161 0.020300 0.098658
v 0.035161 -0.020300 0.098658
v -0.035161 -0.020300 0.098658
v 0.040600 0.000000 0.098658
v -0.020300 -0.035161 0.098658
v 0.035161 0.020300 0.098658
v -0.020300 0.035161 0.098658
v 0.020300 0.035161 0.098658
v 0.038018 0.021950 -0.087488
v 0.021950 0.038018 -0.096014
v 0.000000 -0.043900 -0.087488
v 0.021950 -0.038018 -0.096014
v 0.021950 0.038018 -0.087488
v 0.000000 0.043900 -0.096014
v -0.038018 0.021950 -0.087488
v -0.043900 -0.000000 -0.096014
v 0.021950 -0.038018 -0.087488
v 0.038018 -0.021950 -0.096014
v -0.021950 -0.038018 -0.087488
v 0.000000 -0.043900 -0.096014
v -0.043900 -0.000000 0.087488
v -0.038018 0.021950 0.096014
v -0.000000 0.043900 0.087488
v 0.021950 0.038018 0.096014
v 0.038018 0.021950 0.087488
v 0.043900 0.000000 0.096014
v -0.021950 -0.038018 0.087488
v -0.038018 -0.021950 0.096014
v -0.021950 0.038018 0.087488
v -0.000000 0.043900 0.096014
v -0.038018 -0.021950 0.087488
v -0.043900 -0.000000 0.096014
v 0.043900 0.000000 -0.087488
v 0.038018 0.021950 -0.096014
v -0.038018 -0.021950 -0.087488
v -0.021950 -0.038018 -0.096014
v 0.000000 0.043900 -0.087488
v -0.021950 0.038018 -0.096014
v -0.043900 -0.000000 -0.087488
v -0.038018 -0.021950 -0.096014
v 0.038018 -0.021950 -0.087488
v 0.043900 0.000000 -0.096014
v -0.021950 0.038018 -0.087488
v -0.038018 0.021950 -0.096014
v 0.021950 -0.038018 0.087488
v -0.000000 -0.043900 0.096014
v 0.021950 0.038018 0.087488
v 0.038018 0.021950 0.096014
v -0.000000 -0.043900 0.087488
v -0.021950 -0.038018 0.096014
v 0.038018 -0.021950 0.087488
v 0.021950 -0.038018 0.096014
v -0.038018 0.021950 0.087488
v -0.021950 0.038018 0.096014
v 0.043900 0.000000 0.087488
v 0.038018 -0.021950 0.096014
vn -0.0000 -0.0000 -1.0000
vn -0.0000 -0.0000 1.0000
vn 0.0196 0.0730 0.9971
vn 0.2588 -0.9659 -0.0000
vn 1.0000 -0.0000 -0.0000
vn 0.0534 0.0534 0.9971
vn 0.7071 -0.7071 -0.0000
vn -0.0000 0.7071 -0.7071
vn 0.0730 0.0196 0.9971
vn -0.0000 -0.9659 -0.2588
vn 0.9659 -0.2588 -0.0000
vn -0.0000 0.9659 -0.2588
vn 0.0730 -0.0196 0.9971
vn -0.0000 0.7071 0.7071
vn 0.9659 0.2588 -0.0000
vn 0.0534 -0.0534 0.9971
vn 0.7071 0.7071 -0.0000
vn -0.0000 0.2588 -0.9659
vn 0.0196 -0.0730 0.9971
vn 0.2588 0.9659 -0.0000
vn -0.0000 -0.9659 0.2588
vn -0.0196 -0.0730 0.9971
vn -0.2588 0.9659 -0.0000
vn -0.0534 -0.0534 0.9971
vn -0.7071 0.7071 -0.0000
vn -0.0000 -0.2588 -0.9659
vn -0.0730 -0.0196 0.9971
vn -0.9659 0.2588 -0.0000
vn -0.0000 0.9659 0.2588
vn -0.0730 0.0196 0.9971
vn -0.9659 -0.2588 -0.0000
vn -0.0534 0.0534 0.9971
vn -0.7071 -0.7071 -0.0000
vn -0.0000 -0.7071 -0.7071
vn -0.0196 0.0730 0.9971
vn -0.2588 -0.9659 -0.0000
vn -0.0000 -0.2588 0.9659
vn -0.0000 0.2588 0.9659
vn -0.0000 -0.7071 0.7071
vn -0.0196 0.0730 -0.9971
vn -0.0534 0.0534 -0.9971
vn -0.0730 0.0196 -0.9971
vn -0.0730 -0.0196 -0.9971
vn -0.0534 -0.0534 -0.9971
vn -0.0196 -0.0730 -0.9971
vn 0.0196 -0.0730 -0.9971
vn 0.0534 -0.0534 -0.9971
vn 0.0730 -0.0196 -0.9971
vn 0.0730 0.0196 -0.9971
vn 0.0534 0.0534 -0.9971
vn 0.0196 0.0730 -0.9971
vn 0.2588 -0.9658 -0.0132
vn 0.7070 0.7070 -0.0132
vn -0.9658 0.2588 -0.0132
vn 0.2588 0.9658 -0.0132
vn -0.2588 -0.9658 -0.0132
vn 0.7070 -0.7070 -0.0132
vn 0.9658 0.2588 -0.0132
vn -0.7070 -0.7070 -0.0132
vn -0.2588 0.9658 -0.0132
vn -0.9658 -0.2588 -0.0132
vn 0.9658 -0.2588 -0.0132
vn -0.7070 0.7070 -0.0132
vn 0.2588 -0.9658 0.0132
vn 0.7070 0.7070 0.0132
vn -0.9658 0.2588 0.0132
vn 0.2588 0.9658 0.0132
vn -0.2588 -0.9658 0.0132
vn 0.7070 -0.7070 0.0132
vn 0.9658 0.2588 0.0132
vn -0.7070 -0.7070 0.0132
vn -0.2588 0.9658 0.0132
vn -0.9658 -0.2588 0.0132
vn 0.9658 -0.2588 0.0132
vn -0.7070 0.7070 0.0132
vn -1.0000 -0.0000 -0.0000
vn 0.7071 0.1830 -0.6830
vn -0.1371 0.2564 -0.9568
vn 0.7071 0.5000 -0.5000
vn -0.1371 0.7004 -0.7004
vn 0.7071 0.6830 -0.1830
vn -0.1371 0.9568 -0.2564
vn 0.7071 0.6830 0.1830
vn -0.1371 0.9568 0.2564
vn 0.7071 0.5000 0.5000
vn -0.1371 0.7004 0.7004
vn 0.7071 0.1830 0.6830
vn -0.1371 0.2564 0.9568
vn 0.7071 -0.1830 0.6830
vn -0.1371 -0.2564 0.9568
vn 0.7071 -0.5000 0.5000
vn -0.1371 -0.7004 0.7004
vn 0.7071 -0.6830 0.1830
vn -0.1371 -0.9568 0.2564
vn 0.7071 -0.6830 -0.1830
vn -0.1371 -0.9568 -0.2564
vn 0.7071 -0.5000 -0.5000
vn -0.1371 -0.7004 -0.7004
vn 0.7071 -0.1830 -0.6830
vn -0.1371 -0.2564 -0.9568
vn 0.1652 -0.6166 0.7697
vn 0.1652 -0.6166 -0.7698
vn 0.4514 0.4514 0.7697
vn 0.4514 0.4514 -0.7697
vn -0.6166 0.1652 0.7697
vn -0.6166 0.1652 -0.7697
vn 0.1652 0.6166 0.7697
vn 0.1652 0.6166 -0.7697
vn -0.1652 -0.6166 0.7697
vn -0.1652 -0.6166 -0.7697
vn 0.4514 -0.4514 0.7697
vn 0.4514 -0.4514 -0.7697
vn 0.6166 0.1652 0.7697
vn 0.6166 0.1652 -0.7697
vn -0.4514 -0.4514 0.7697
vn -0.4514 -0.4514 -0.7697
vn -0.1652 0.6166 0.7697
vn -0.1652 0.6166 -0.7698
vn -0.6166 -0.1652 0.7697
vn -0.6166 -0.1652 -0.7697
vn 0.6166 -0.1652 0.7697
vn 0.6166 -0.1652 -0.7697
vn -0.4514 0.4514 0.7697
vn -0.4514 0.4514 -0.7697
vn 0.1652 -0.6166 -0.7697
vn -0.1652 0.6166 -0.7697
s 1
f 115//1 113//1 1//1
f 123//1 121//1 1//1
f 114//1 116//1 1//1
f 112//1 123//1 1//1
f 113//1 120//1 1//1
f 117//1 115//1 1//1
f 121//1 119//1 1//1
f 120//1 118//1 1//1
f 122//1 112//1 1//1
f 118//1 114//1 1//1
f 119//1 117//1 1//1
f 116//1 122//1 1//1
f 125//2 127//2 14//2
f 133//2 135//2 14//2
f 128//2 126//2 14//2
f 135//2 124//2 14//2
f 132//2 125//2 14//2
f 127//2 129//2 14//2
f 131//2 133//2 14//2
f 130//2 132//2 14//2
f 124//2 134//2 14//2
f 126//2 130//2 14//2
f 129//2 131//2 14//2
f 134//2 128//2 14//2
f 40//3 42//3 15//3 26//3
f 60//4 32//4 30//4 53//4
f 53//4 29//4 31//4 61//4
f 76//5 58//5 79//5
f 87//5 58//5 86//5
f 38//6 40//6 26//6 24//6
f 82//5 58//5 81//5
f 61//7 31//7 33//7 62//7
f 54//7 34//7 32//7 60//7
f 28//8 226//8 242//8 27//8
f 36//9 38//9 24//9 22//9
f 61//10 235//10 233//10 53//10
f 62//11 33//11 35//11 63//11
f 55//11 36//11 34//11 54//11
f 59//12 229//12 226//12 28//12
f 34//13 36//13 22//13 20//13
f 56//14 223//14 231//14 57//14
f 63//15 35//15 37//15 27//15
f 56//15 38//15 36//15 55//15
f 86//5 58//5 85//5
f 32//16 34//16 20//16 18//16
f 81//5 58//5 80//5
f 27//17 37//17 39//17 28//17
f 57//17 40//17 38//17 56//17
f 27//18 242//18 240//18 63//18
f 30//19 32//19 18//19 16//19
f 28//20 39//20 41//20 59//20
f 59//20 42//20 40//20 57//20
f 53//21 233//21 228//21 60//21
f 83//5 58//5 87//5
f 52//22 30//22 16//22 23//22
f 43//23 44//23 42//23 41//23
f 85//5 58//5 84//5
f 50//24 52//24 23//24 21//24
f 45//25 46//25 44//25 43//25
f 63//26 240//26 237//26 62//26
f 48//27 50//27 21//27 17//27
f 47//28 48//28 46//28 45//28
f 57//29 231//29 229//29 59//29
f 46//30 48//30 17//30 19//30
f 49//31 50//31 48//31 47//31
f 84//5 58//5 82//5
f 44//32 46//32 19//32 25//32
f 51//33 52//33 50//33 49//33
f 62//34 237//34 235//34 61//34
f 42//35 44//35 25//35 15//35
f 29//36 30//36 52//36 51//36
f 79//5 58//5 83//5
f 77//5 58//5 76//5
f 54//37 225//37 222//37 55//37
f 78//5 58//5 77//5
f 55//38 222//38 223//38 56//38
f 60//39 228//39 225//39 54//39
f 80//5 58//5 78//5
f 2//40 12//40 43//40 41//40
f 12//41 6//41 45//41 43//41
f 6//42 4//42 47//42 45//42
f 4//43 8//43 49//43 47//43
f 8//44 10//44 51//44 49//44
f 10//45 3//45 29//45 51//45
f 3//46 5//46 31//46 29//46
f 5//47 7//47 33//47 31//47
f 7//48 9//48 35//48 33//48
f 9//49 11//49 37//49 35//49
f 11//50 13//50 39//50 37//50
f 13//51 2//51 41//51 39//51
f 67//5 221//5 220//5 64//5
f 74//5 243//5 238//5 75//5
f 69//5 234//5 236//5 70//5
f 73//5 241//5 243//5 74//5
f 68//5 232//5 234//5 69//5
f 75//5 238//5 230//5 71//5
f 72//5 239//5 241//5 73//5
f 70//5 236//5 239//5 72//5
f 71//5 230//5 221//5 67//5
f 64//5 220//5 224//5 65//5
f 65//5 224//5 227//5 66//5
f 66//5 227//5 232//5 68//5
f 139//14 67//14 64//14 140//14
f 136//8 74//8 75//8 137//8
f 144//10 69//10 70//10 145//10
f 147//18 73//18 74//18 136//18
f 143//21 68//21 69//21 144//21
f 137//12 75//12 71//12 138//12
f 146//26 72//26 73//26 147//26
f 145//34 70//34 72//34 146//34
f 138//29 71//29 67//29 139//29
f 140//38 64//38 65//38 141//38
f 141//37 65//37 66//37 142//37
f 142//39 66//39 68//39 143//39
f 91//52 5//52 3//52 89//52
f 99//53 13//53 11//53 97//53
f 90//54 4//54 6//54 92//54
f 88//55 2//55 13//55 99//55
f 89//56 3//56 10//56 96//56
f 93//57 7//57 5//57 91//57
f 97//58 11//58 9//58 95//58
f 96//59 10//59 8//59 94//59
f 98//60 12//60 2//60 88//60
f 94//61 8//61 4//61 90//61
f 95//62 9//62 7//62 93//62
f 92//63 6//63 12//63 98//63
f 101//64 16//64 18//64 103//64
f 109//65 24//65 26//65 111//65
f 104//66 19//66 17//66 102//66
f 111//67 26//67 15//67 100//67
f 108//68 23//68 16//68 101//68
f 103//69 18//69 20//69 105//69
f 107//70 22//70 24//70 109//70
f 106//71 21//71 23//71 108//71
f 100//72 15//72 25//72 110//72
f 102//73 17//73 21//73 106//73
f 105//74 20//74 22//74 107//74
f 110//75 25//75 19//75 104//75
f 295//4 300//4 294//4 303//4
f 293//17 296//17 292//17 317//17
f 299//28 322//28 298//28 327//28
f 297//20 320//20 296//20 293//20
f 303//36 294//36 302//36 319//36
f 301//7 324//7 300//7 295//7
f 317//15 292//15 316//15 325//15
f 319//33 302//33 318//33 323//33
f 321//23 326//23 320//23 297//23
f 323//31 318//31 322//31 299//31
f 325//11 316//11 324//11 301//11
f 327//25 298//25 326//25 321//25
f 329//4 332//4 328//4 335//4
f 331//17 308//17 330//17 307//17
f 305//28 336//28 304//28 315//28
f 307//20 330//20 306//20 313//20
f 333//36 310//36 332//36 329//36
f 335//7 328//7 334//7 339//7
f 309//15 338//15 308//15 331//15
f 311//33 314//33 310//33 333//33
f 313//23 306//23 312//23 337//23
f 315//31 304//31 314//31 311//31
f 339//11 334//11 338//11 309//11
f 337//25 312//25 336//25 305//25
f 137//8 162//8 161//8 136//8
f 138//12 163//12 162//12 137//12
f 139//29 164//29 163//29 138//29
f 140//14 165//14 164//14 139//14
f 141//38 166//38 165//38 140//38
f 142//37 167//37 166//37 141//37
f 143//39 168//39 167//39 142//39
f 144//21 169//21 168//21 143//21
f 145//10 170//10 169//10 144//10
f 146//34 171//34 170//34 145//34
f 147//26 160//26 171//26 146//26
f 136//18 161//18 160//18 147//18
f 149//18 86//18 85//18 148//18
f 150//8 87//8 86//8 149//8
f 151//12 83//12 87//12 150//12
f 152//29 79//29 83//29 151//29
f 153//14 76//14 79//14 152//14
f 154//38 77//38 76//38 153//38
f 155//37 78//37 77//37 154//37
f 156//39 80//39 78//39 155//39
f 157//21 81//21 80//21 156//21
f 158//10 82//10 81//10 157//10
f 159//34 84//34 82//34 158//34
f 148//26 85//26 84//26 159//26
f 179//18 177//18 175//18 176//18
f 182//8 180//8 177//8 179//8
f 185//12 183//12 180//12 182//12
f 188//29 186//29 183//29 185//29
f 191//14 189//14 186//14 188//14
f 194//38 192//38 189//38 191//38
f 197//37 195//37 192//37 194//37
f 200//39 198//39 195//39 197//39
f 203//21 201//21 198//21 200//21
f 206//10 204//10 201//10 203//10
f 174//34 207//34 204//34 206//34
f 176//26 175//26 207//26 174//26
f 178//5 149//5 148//5 173//5
f 208//76 160//76 161//76 209//76
f 181//5 150//5 149//5 178//5
f 209//76 161//76 162//76 210//76
f 184//5 151//5 150//5 181//5
f 210//76 162//76 163//76 211//76
f 187//5 152//5 151//5 184//5
f 211//76 163//76 164//76 212//76
f 190//5 153//5 152//5 187//5
f 212//76 164//76 165//76 213//76
f 193//5 154//5 153//5 190//5
f 213//76 165//76 166//76 214//76
f 196//5 155//5 154//5 193//5
f 214//76 166//76 167//76 215//76
f 199//5 156//5 155//5 196//5
f 215//76 167//76 168//76 216//76
f 202//5 157//5 156//5 199//5
f 216//76 168//76 169//76 217//76
f 205//5 158//5 157//5 202//5
f 217//76 169//76 170//76 218//76
f 172//5 159//5 158//5 205//5
f 218//76 170//76 171//76 219//76
f 173//5 148//5 159//5 172//5
f 219//76 171//76 160//76 208//76
f 173//77 175//77 177//77 178//77
f 176//78 208//78 209//78 179//78
f 178//79 177//79 180//79 181//79
f 179//80 209//80 210//80 182//80
f 181//81 180//81 183//81 184//81
f 182//82 210//82 211//82 185//82
f 184//83 183//83 186//83 187//83
f 185//84 211//84 212//84 188//84
f 187//85 186//85 189//85 190//85
f 188//86 212//86 213//86 191//86
f 190//87 189//87 192//87 193//87
f 191//88 213//88 214//88 194//88
f 193//89 192//89 195//89 196//89
f 194//90 214//90 215//90 197//90
f 196//91 195//91 198//91 199//91
f 197//92 215//92 216//92 200//92
f 199//93 198//93 201//93 202//93
f 200//94 216//94 217//94 203//94
f 202//95 201//95 204//95 205//95
f 203//96 217//96 218//96 206//96
f 205//97 204//97 207//97 172//97
f 206//98 218//98 219//98 174//98
f 172//99 207//99 175//99 173//99
f 174//100 219//100 208//100 176//100
f 226//79 238//79 243//79 242//79
f 235//95 236//95 234//95 233//95
f 229//81 230//81 238//81 226//81
f 223//85 220//85 221//85 231//85
f 242//77 243//77 241//77 240//77
f 233//93 234//93 232//93 228//93
f 240//99 241//99 239//99 237//99
f 231//83 221//83 230//83 229//83
f 237//97 239//97 236//97 235//97
f 225//89 227//89 224//89 222//89
f 222//87 224//87 220//87 223//87
f 228//91 232//91 227//91 225//91
f 247//2 91//2 89//2 245//2
f 257//1 113//1 115//1 259//1
f 255//2 99//2 97//2 253//2
f 265//1 121//1 123//1 267//1
f 246//2 90//2 92//2 248//2
f 260//1 116//1 114//1 258//1
f 244//2 88//2 99//2 255//2
f 267//1 123//1 112//1 256//1
f 245//2 89//2 96//2 252//2
f 264//1 120//1 113//1 257//1
f 249//2 93//2 91//2 247//2
f 259//1 115//1 117//1 261//1
f 253//2 97//2 95//2 251//2
f 263//1 119//1 121//1 265//1
f 252//2 96//2 94//2 250//2
f 262//1 118//1 120//1 264//1
f 254//2 98//2 88//2 244//2
f 256//1 112//1 122//1 266//1
f 250//2 94//2 90//2 246//2
f 258//1 114//1 118//1 262//1
f 251//2 95//2 93//2 249//2
f 261//1 117//1 119//1 263//1
f 248//2 92//2 98//2 254//2
f 266//1 122//1 116//1 260//1
f 269//1 101//1 103//1 271//1
f 283//2 127//2 125//2 281//2
f 277//1 109//1 111//1 279//1
f 291//2 135//2 133//2 289//2
f 272//1 104//1 102//1 270//1
f 282//2 126//2 128//2 284//2
f 279//1 111//1 100//1 268//1
f 280//2 124//2 135//2 291//2
f 276//1 108//1 101//1 269//1
f 281//2 125//2 132//2 288//2
f 271//1 103//1 105//1 273//1
f 285//2 129//2 127//2 283//2
f 275//1 107//1 109//1 277//1
f 289//2 133//2 131//2 287//2
f 274//1 106//1 108//1 276//1
f 288//2 132//2 130//2 286//2
f 268//1 100//1 110//1 278//1
f 290//2 134//2 124//2 280//2
f 270//1 102//1 106//1 274//1
f 286//2 130//2 126//2 282//2
f 273//1 105//1 107//1 275//1
f 287//2 131//2 129//2 285//2
f 278//1 110//1 104//1 272//1
f 284//2 128//2 134//2 290//2
f 245//101 294//101 300//101 247//101
f 259//102 295//102 303//102 257//102
f 253//103 292//103 296//103 255//103
f 267//104 293//104 317//104 265//104
f 248//105 298//105 322//105 246//105
f 258//106 299//106 327//106 260//106
f 255//107 296//107 320//107 244//107
f 256//108 297//108 293//108 267//108
f 252//109 302//109 294//109 245//109
f 257//110 303//110 319//110 264//110
f 247//111 300//111 324//111 249//111
f 261//112 301//112 295//112 259//112
f 251//113 316//113 292//113 253//113
f 265//114 317//114 325//114 263//114
f 250//115 318//115 302//115 252//115
f 264//116 319//116 323//116 262//116
f 244//117 320//117 326//117 254//117
f 266//118 321//118 297//118 256//118
f 246//119 322//119 318//119 250//119
f 262//120 323//120 299//120 258//120
f 249//121 324//121 316//121 251//121
f 263//122 325//122 301//122 261//122
f 254//123 326//123 298//123 248//123
f 260//124 327//124 321//124 266//124
f 271//125 328//125 332//125 269//125
f 281//101 329//101 335//101 283//101
f 279//104 330//104 308//104 277//104
f 289//103 331//103 307//103 291//103
f 270//106 304//106 336//106 272//106
f 284//105 305//105 315//105 282//105
f 268//108 306//108 330//108 279//108
f 291//107 307//107 313//107 280//107
f 269//110 332//110 310//110 276//110
f 288//109 333//109 329//109 281//109
f 273//112 334//112 328//112 271//112
f 283//111 335//111 339//111 285//111
f 277//114 308//114 338//114 275//114
f 287//113 309//113 331//113 289//113
f 276//116 310//116 314//116 274//116
f 286//115 311//115 333//115 288//115
f 278//126 312//126 306//126 268//126
f 280//117 313//117 337//117 290//117
f 274//120 314//120 304//120 270//120
f 282//119 315//119 311//119 286//119
f 275//122 338//122 334//122 273//122
f 285//121 339//121 309//121 287//121
f 272//124 336//124 312//124 278//124
f 290//123 337//123 305//123 284//123
