# Blender 3.5.1
# www.blender.org
o h_link
v 0.416803 -0.081503 0.036821
v 0.416803 -0.054913 0.036821
v 0.403450 -0.081503 0.011954
v 0.403450 -0.054913 0.011954
v 0.403380 -0.081503 -0.012951
v 0.403380 -0.054913 -0.012951
v 0.416592 -0.081503 -0.037893
v 0.416592 -0.054913 -0.037893
v 0.441459 -0.081503 -0.051246
v 0.441459 -0.054913 -0.051246
v 0.466364 -0.081503 -0.051316
v 0.466364 -0.054913 -0.051316
v 0.491306 -0.081503 -0.038104
v 0.491306 -0.054913 -0.038104
v 0.504659 -0.081503 -0.013237
v 0.504659 -0.054913 -0.013237
v 0.504730 -0.081503 0.011668
v 0.504730 -0.054913 0.011668
v 0.491517 -0.081503 0.036610
v 0.491517 -0.054913 0.036610
v 0.466650 -0.081503 0.049963
v 0.466650 -0.054913 0.049963
v 0.441745 -0.081503 0.050034
v 0.441745 -0.054913 0.050034
v 0.470982 -0.054913 0.016191
v 0.437222 -0.054913 0.016286
v 0.470887 -0.054913 -0.017569
v 0.437127 -0.054913 -0.017474
v 0.470982 -0.081503 0.016191
v 0.437222 -0.081503 0.016286
v 0.470887 -0.081503 -0.017569
v 0.437127 -0.081503 -0.017474
v -0.037506 -0.081503 0.038104
v -0.037506 -0.054913 0.038104
v -0.050859 -0.081503 0.013237
v -0.050859 -0.054913 0.013237
v -0.050930 -0.081503 -0.011668
v -0.050930 -0.054913 -0.011668
v -0.037717 -0.081503 -0.036610
v -0.037717 -0.054913 -0.036610
v -0.012850 -0.081503 -0.049963
v -0.012850 -0.054913 -0.049963
v 0.012055 -0.081503 -0.050034
v 0.012055 -0.054913 -0.050034
v 0.036997 -0.081503 -0.036821
v 0.036997 -0.054913 -0.036821
v 0.050350 -0.081503 -0.011954
v 0.050350 -0.054913 -0.011954
v 0.050420 -0.081503 0.012951
v 0.050420 -0.054913 0.012951
v 0.037208 -0.081503 0.037893
v 0.037208 -0.054913 0.037893
v 0.012341 -0.081503 0.051246
v 0.012341 -0.054913 0.051246
v -0.012564 -0.081503 0.051316
v -0.012564 -0.054913 0.051316
v 0.016673 -0.054913 0.017474
v -0.017087 -0.054913 0.017569
v 0.016578 -0.054913 -0.016286
v -0.017182 -0.054913 -0.016191
v 0.016673 -0.081503 0.017474
v -0.017087 -0.081503 0.017569
v 0.016578 -0.081503 -0.016286
v -0.017182 -0.081503 -0.016191
v 0.491306 -0.078887 -0.038104
v 0.504659 -0.078887 -0.013237
v 0.504730 -0.078887 0.011668
v 0.491517 -0.078887 0.036610
v 0.466650 -0.078887 0.049963
v 0.441745 -0.078887 0.050034
v 0.416803 -0.078887 0.036821
v 0.037208 -0.078887 0.037893
v 0.012341 -0.078887 0.051246
v -0.012564 -0.078887 0.051316
v -0.037506 -0.078887 0.038104
v -0.050859 -0.078887 0.013237
v -0.050930 -0.078887 -0.011668
v -0.037717 -0.078887 -0.036610
v -0.012850 -0.078887 -0.049963
v 0.012055 -0.078887 -0.050034
v 0.036997 -0.078887 -0.036821
v 0.416592 -0.078887 -0.037893
v 0.441459 -0.078887 -0.051246
v 0.466364 -0.078887 -0.051316
v 0.504659 -0.057090 -0.013237
v 0.504730 -0.057090 0.011668
v 0.491517 -0.057090 0.036610
v 0.466650 -0.057090 0.049963
v 0.441745 -0.057090 0.050034
v 0.416803 -0.057090 0.036821
v 0.037208 -0.057090 0.037893
v 0.012341 -0.057090 0.051246
v -0.012564 -0.057090 0.051316
v -0.037506 -0.057090 0.038104
v -0.050859 -0.057090 0.013237
v -0.050930 -0.057090 -0.011668
v -0.037717 -0.057090 -0.036610
v -0.012850 -0.057090 -0.049963
v 0.012055 -0.057090 -0.050034
v 0.036997 -0.057090 -0.036821
v 0.416592 -0.057090 -0.037893
v 0.441459 -0.057090 -0.051246
v 0.466364 -0.057090 -0.051316
v 0.491306 -0.057090 -0.038104
v 0.416803 0.054913 0.036821
v 0.416803 0.081503 0.036821
v 0.403450 0.054913 0.011954
v 0.403450 0.081503 0.011954
v 0.403380 0.054913 -0.012951
v 0.403380 0.081503 -0.012951
v 0.416592 0.054913 -0.037893
v 0.416592 0.081503 -0.037893
v 0.441459 0.054913 -0.051246
v 0.441459 0.081503 -0.051246
v 0.466364 0.054913 -0.051316
v 0.466364 0.081503 -0.051316
v 0.491306 0.054913 -0.038104
v 0.491306 0.081503 -0.038104
v 0.504659 0.054913 -0.013237
v 0.504659 0.081503 -0.013237
v 0.504730 0.054913 0.011668
v 0.504730 0.081503 0.011668
v 0.491517 0.054913 0.036610
v 0.491517 0.081503 0.036610
v 0.466650 0.054913 0.049963
v 0.466650 0.081503 0.049963
v 0.441745 0.054913 0.050034
v 0.441745 0.081503 0.050034
v 0.470982 0.081503 0.016191
v 0.437222 0.081503 0.016286
v 0.470887 0.081503 -0.017569
v 0.437127 0.081503 -0.017474
v 0.470982 0.054913 0.016191
v 0.437222 0.054913 0.016286
v 0.470887 0.054913 -0.017569
v 0.437127 0.054913 -0.017474
v -0.037506 0.054913 0.038104
v -0.037506 0.081503 0.038104
v -0.050859 0.054913 0.013237
v -0.050859 0.081503 0.013237
v -0.050930 0.054913 -0.011668
v -0.050930 0.081503 -0.011668
v -0.037717 0.054913 -0.036610
v -0.037717 0.081503 -0.036610
v -0.012850 0.054913 -0.049963
v -0.012850 0.081503 -0.049963
v 0.012055 0.054913 -0.050034
v 0.012055 0.081503 -0.050034
v 0.036997 0.054913 -0.036821
v 0.036997 0.081503 -0.036821
v 0.050350 0.054913 -0.011954
v 0.050350 0.081503 -0.011954
v 0.050420 0.054913 0.012951
v 0.050420 0.081503 0.012951
v 0.037208 0.054913 0.037893
v 0.037208 0.081503 0.037893
v 0.012341 0.054913 0.051246
v 0.012341 0.081503 0.051246
v -0.012564 0.054913 0.051316
v -0.012564 0.081503 0.051316
v 0.016673 0.081503 0.017474
v -0.017087 0.081503 0.017569
v 0.016578 0.081503 -0.016286
v -0.017182 0.081503 -0.016191
v 0.016673 0.054913 0.017474
v -0.017087 0.054913 0.017569
v 0.016578 0.054913 -0.016286
v -0.017182 0.054913 -0.016191
v 0.491306 0.057529 -0.038104
v 0.504659 0.057529 -0.013237
v 0.504730 0.057529 0.011668
v 0.491517 0.057529 0.036610
v 0.466650 0.057529 0.049963
v 0.441745 0.057529 0.050034
v 0.416803 0.057529 0.036821
v 0.037208 0.057529 0.037893
v 0.012341 0.057529 0.051246
v -0.012564 0.057529 0.051316
v -0.037506 0.057529 0.038104
v -0.050859 0.057529 0.013237
v -0.050930 0.057529 -0.011668
v -0.037717 0.057529 -0.036610
v -0.012850 0.057529 -0.049963
v 0.012055 0.057529 -0.050034
v 0.036997 0.057529 -0.036821
v 0.416592 0.057529 -0.037893
v 0.441459 0.057529 -0.051246
v 0.466364 0.057529 -0.051316
v 0.504659 0.079326 -0.013237
v 0.504730 0.079326 0.011668
v 0.491517 0.079326 0.036610
v 0.466650 0.079326 0.049963
v 0.441745 0.079326 0.050034
v 0.416803 0.079326 0.036821
v 0.037208 0.079326 0.037893
v 0.012341 0.079326 0.051246
v -0.012564 0.079326 0.051316
v -0.037506 0.079326 0.038104
v -0.050859 0.079326 0.013237
v -0.050930 0.079326 -0.011668
v -0.037717 0.079326 -0.036610
v -0.012850 0.079326 -0.049963
v 0.012055 0.079326 -0.050034
v 0.036997 0.079326 -0.036821
v 0.416592 0.079326 -0.037893
v 0.441459 0.079326 -0.051246
v 0.466364 0.079326 -0.051316
v 0.491306 0.079326 -0.038104
vn -0.4731 -0.0000 -0.8810
vn -0.2453 -0.0000 -0.9695
vn 0.2398 -0.0000 -0.9708
vn 0.4681 -0.0000 -0.8837
vn 0.8810 -0.0000 -0.4731
vn 0.9694 -0.0000 -0.2453
vn 0.9708 -0.0000 0.2398
vn 0.8837 -0.0000 0.4681
vn 0.4731 -0.0000 0.8810
vn 0.2453 -0.0000 0.9694
vn -0.2398 -0.0000 0.9708
vn -0.4681 -0.0000 0.8837
vn -0.0000 1.0000 -0.0000
vn -0.0000 -1.0000 -0.0000
vn -0.8810 -0.0000 0.4731
vn -0.9694 -0.0000 0.2453
vn -0.9708 -0.0000 -0.2398
vn -0.8837 -0.0000 -0.4681
vn -0.2453 -0.0000 -0.9694
vn 0.2453 -0.0000 0.9695
vn -0.0028 -0.0000 -1.0000
vn 0.0028 -0.0000 1.0000
vt 0.522970 0.158385
vt 0.777030 0.134477
vt 0.158384 0.841615
vt 0.824889 0.134477
vt 0.478145 0.182293
vt 0.113559 0.817707
vt 0.433318 0.182292
vt 0.068733 0.817708
vt 0.729171 0.817706
vt 0.388493 0.158386
vt 0.023907 0.841614
vt 0.777030 0.817706
vt 0.729171 0.862531
vt 0.364586 0.113560
vt 0.000000 0.886440
vt 0.777030 0.862531
vt 0.729171 0.907358
vt 0.364586 0.068734
vt 0.000001 0.931266
vt 0.777030 0.907358
vt 0.729171 0.952183
vt 0.920607 0.000000
vt 0.388493 0.023909
vt 0.023907 0.976091
vt 0.777030 0.952183
vt 0.968466 0.000000
vt 0.920607 0.044825
vt 0.433318 0.000001
vt 0.068733 0.999999
vt 0.968466 0.044825
vt 0.920607 0.089652
vt 0.478144 0.000000
vt 0.113559 1.000000
vt 0.968466 0.089652
vt 0.920607 0.134477
vt 0.777030 0.000000
vt 0.522970 0.023908
vt 0.158384 0.976092
vt 0.968466 0.134477
vt 0.824889 0.000000
vt 0.777030 0.044825
vt 0.546877 0.068734
vt 0.182292 0.931266
vt 0.824889 0.044825
vt 0.777030 0.089652
vt 0.546878 0.113560
vt 0.182293 0.886440
vt 0.824889 0.089652
vt 0.121528 0.939235
vt 0.121528 0.878471
vt 0.060764 0.939235
vt 0.060763 0.878471
vt 0.486114 0.060765
vt 0.486113 0.121529
vt 0.425350 0.060765
vt 0.425349 0.121529
vt 0.920607 0.134477
vt 0.777030 0.952183
vt 0.522971 0.976091
vt 0.158386 0.023909
vt 0.824889 0.952183
vt 0.968466 0.134477
vt 0.920607 0.179302
vt 0.478146 0.999999
vt 0.113560 0.000001
vt 0.968466 0.179302
vt 0.920607 0.224129
vt 0.433320 1.000000
vt 0.068734 0.000000
vt 0.968466 0.224129
vt 0.920607 0.268954
vt 0.729171 0.000000
vt 0.388494 0.976092
vt 0.023909 0.023908
vt 0.968466 0.268954
vt 0.777030 0.000000
vt 0.729171 0.044825
vt 0.364587 0.931266
vt 0.000001 0.068734
vt 0.777030 0.044825
vt 0.729171 0.089652
vt 0.364586 0.886440
vt 0.000000 0.113560
vt 0.777030 0.089652
vt 0.729171 0.134477
vt 0.388494 0.841615
vt 0.023909 0.158385
vt 0.777030 0.134477
vt 0.433319 0.817707
vt 0.068734 0.182293
vt 0.478146 0.817708
vt 0.113560 0.182292
vt 0.522971 0.841614
vt 0.777030 0.817706
vt 0.158385 0.158386
vt 0.824889 0.817706
vt 0.777030 0.862531
vt 0.546878 0.886440
vt 0.182293 0.113560
vt 0.824889 0.862531
vt 0.777030 0.907358
vt 0.546878 0.931266
vt 0.182292 0.068734
vt 0.824889 0.907358
vt 0.121529 0.121529
vt 0.121529 0.060765
vt 0.060765 0.121529
vt 0.060765 0.060765
vt 0.486115 0.878471
vt 0.486115 0.939235
vt 0.425351 0.878471
vt 0.425350 0.939235
vt 0.925315 0.000000
vt 0.733880 0.952183
vt 0.925315 0.044825
vt 0.925315 0.089652
vt 0.925315 0.134477
vt 0.781739 0.000000
vt 0.781739 0.044825
vt 0.781739 0.089652
vt 0.781739 0.134477
vt 0.781739 0.817706
vt 0.781739 0.862531
vt 0.781739 0.907358
vt 0.781739 0.952183
vt 0.925315 0.134477
vt 0.925315 0.179302
vt 0.925315 0.224129
vt 0.925315 0.268954
vt 0.733880 0.000000
vt 0.733880 0.044825
vt 0.733880 0.089652
vt 0.733880 0.134477
vt 0.733880 0.817706
vt 0.733880 0.862531
vt 0.733880 0.907358
vt 0.964547 0.044825
vt 0.964547 0.089652
vt 0.964547 0.134477
vt 0.820971 0.000000
vt 0.820971 0.044825
vt 0.820971 0.089652
vt 0.820971 0.134477
vt 0.820971 0.817706
vt 0.820971 0.862531
vt 0.820971 0.907358
vt 0.820971 0.952183
vt 0.964547 0.134477
vt 0.964547 0.179302
vt 0.964547 0.224129
vt 0.964547 0.268954
vt 0.773112 0.000000
vt 0.773112 0.044825
vt 0.773112 0.089652
vt 0.773112 0.134477
vt 0.773112 0.817706
vt 0.773112 0.862531
vt 0.773112 0.907358
vt 0.773112 0.952183
vt 0.964547 0.000000
vt 0.705263 0.158385
vt 0.872748 0.134477
vt 0.340677 0.841615
vt 0.920607 0.134477
vt 0.660438 0.182293
vt 0.295852 0.817707
vt 0.615611 0.182292
vt 0.251026 0.817708
vt 0.824889 0.817706
vt 0.570786 0.158386
vt 0.206200 0.841614
vt 0.872748 0.817706
vt 0.824889 0.862531
vt 0.546879 0.113560
vt 0.182293 0.886440
vt 0.872748 0.862531
vt 0.824889 0.907358
vt 0.546879 0.068734
vt 0.182293 0.931266
vt 0.872748 0.907358
vt 0.824889 0.952183
vt 0.920607 0.268954
vt 0.570786 0.023909
vt 0.206200 0.976091
vt 0.872748 0.952183
vt 0.968466 0.268954
vt 0.920607 0.313779
vt 0.615611 0.000001
vt 0.251025 0.999999
vt 0.968466 0.313779
vt 0.920607 0.358606
vt 0.660437 0.000000
vt 0.295852 1.000000
vt 0.968466 0.358606
vt 0.920607 0.403431
vt 0.872748 0.000000
vt 0.705263 0.023908
vt 0.340677 0.976092
vt 0.968466 0.403431
vt 0.920607 0.000000
vt 0.872748 0.044825
vt 0.729170 0.068734
vt 0.364584 0.931266
vt 0.920607 0.044825
vt 0.872748 0.089652
vt 0.729171 0.113560
vt 0.364586 0.886440
vt 0.920607 0.089652
vt 0.303821 0.939235
vt 0.303820 0.878471
vt 0.243057 0.939235
vt 0.243056 0.878471
vt 0.668407 0.060765
vt 0.668406 0.121529
vt 0.607642 0.060765
vt 0.607642 0.121529
vt 0.920607 0.403431
vt 0.872748 0.952183
vt 0.705264 0.976091
vt 0.340678 0.023909
vt 0.920607 0.952183
vt 0.968466 0.403431
vt 0.920607 0.448256
vt 0.660439 0.999999
vt 0.295853 0.000001
vt 0.968466 0.448256
vt 0.920607 0.493082
vt 0.615613 1.000000
vt 0.251027 0.000000
vt 0.968466 0.493082
vt 0.920607 0.537908
vt 0.824889 0.000000
vt 0.570787 0.976092
vt 0.206202 0.023908
vt 0.968466 0.537908
vt 0.872748 0.000000
vt 0.824889 0.044825
vt 0.546880 0.931266
vt 0.182294 0.068734
vt 0.872748 0.044825
vt 0.824889 0.089652
vt 0.546879 0.886440
vt 0.182293 0.113560
vt 0.872748 0.089652
vt 0.824889 0.134477
vt 0.570787 0.841615
vt 0.206201 0.158385
vt 0.872748 0.134477
vt 0.615612 0.817707
vt 0.251027 0.182293
vt 0.660439 0.817708
vt 0.295853 0.182292
vt 0.705264 0.841614
vt 0.872748 0.817706
vt 0.340678 0.158386
vt 0.920607 0.817706
vt 0.872748 0.862531
vt 0.729171 0.886440
vt 0.364586 0.113560
vt 0.920607 0.862531
vt 0.872748 0.907358
vt 0.729171 0.931266
vt 0.364585 0.068734
vt 0.920607 0.907358
vt 0.303822 0.121529
vt 0.303822 0.060765
vt 0.243058 0.121529
vt 0.243058 0.060765
vt 0.668408 0.878471
vt 0.668407 0.939235
vt 0.607644 0.878471
vt 0.607643 0.939235
vt 0.925315 0.268954
vt 0.829597 0.952183
vt 0.925315 0.313779
vt 0.925315 0.358606
vt 0.925315 0.403431
vt 0.877456 0.000000
vt 0.877456 0.044825
vt 0.877456 0.089652
vt 0.877456 0.134477
vt 0.877456 0.817706
vt 0.877456 0.862531
vt 0.877456 0.907358
vt 0.877456 0.952183
vt 0.925315 0.403431
vt 0.925315 0.448256
vt 0.925315 0.493082
vt 0.925315 0.537908
vt 0.829598 0.000000
vt 0.829598 0.044825
vt 0.829598 0.089652
vt 0.829598 0.134477
vt 0.829598 0.817706
vt 0.829598 0.862531
vt 0.829598 0.907358
vt 0.964547 0.313779
vt 0.964547 0.358606
vt 0.964547 0.403431
vt 0.916688 0.000000
vt 0.916688 0.044825
vt 0.916688 0.089652
vt 0.916688 0.134477
vt 0.916688 0.817706
vt 0.916688 0.862531
vt 0.916688 0.907358
vt 0.916688 0.952183
vt 0.964547 0.403431
vt 0.964547 0.448256
vt 0.964547 0.493082
vt 0.964547 0.537908
vt 0.868830 0.000000
vt 0.868830 0.044825
vt 0.868830 0.089652
vt 0.868830 0.134477
vt 0.868830 0.817706
vt 0.868830 0.862531
vt 0.868830 0.907358
vt 0.868830 0.952183
vt 0.964547 0.268954
s 1
f 7/9/1 82/134/1 83/135/2 9/13/2
f 9/13/2 83/135/2 84/136/3 11/17/3
f 11/17/3 84/136/3 65/114/4 13/21/4
f 13/22/5 65/113/5 66/115/6 15/27/6
f 15/27/6 66/115/6 67/116/7 17/31/7
f 17/31/7 67/116/7 68/117/8 19/35/8
f 19/36/9 68/118/9 69/119/10 21/41/10
f 21/41/10 69/119/10 70/120/11 23/45/11
f 23/45/11 70/120/11 71/121/12 1/2/12
f 22/43/13 20/38/13 18/33/13 25/49/13
f 24/47/13 22/43/13 25/49/13 26/50/13
f 2/3/13 24/47/13 26/50/13 4/6/13
f 25/49/13 18/33/13 16/29/13 27/51/13
f 26/50/13 25/49/13 27/51/13 28/52/13
f 4/6/13 26/50/13 28/52/13 6/8/13
f 27/51/13 16/29/13 14/24/13 12/19/13
f 28/52/13 27/51/13 12/19/13 10/15/13
f 6/8/13 28/52/13 10/15/13 8/11/13
f 19/37/14 21/42/14 29/53/14 17/32/14
f 21/42/14 23/46/14 30/54/14 29/53/14
f 23/46/14 1/1/14 3/5/14 30/54/14
f 17/32/14 29/53/14 31/55/14 15/28/14
f 29/53/14 30/54/14 32/56/14 31/55/14
f 30/54/14 3/5/14 5/7/14 32/56/14
f 15/28/14 31/55/14 11/18/14 13/23/14
f 31/55/14 32/56/14 9/14/14 11/18/14
f 32/56/14 5/7/14 7/10/14 9/14/14
f 33/57/15 75/126/15 76/127/16 35/63/16
f 35/63/16 76/127/16 77/128/17 37/67/17
f 37/67/17 77/128/17 78/129/18 39/71/18
f 39/72/1 78/130/1 79/131/19 41/77/19
f 41/77/19 79/131/19 80/132/3 43/81/3
f 43/81/3 80/132/3 81/133/4 45/85/4
f 51/94/9 72/122/9 73/123/20 53/97/20
f 53/97/20 73/123/20 74/124/11 55/101/11
f 55/101/11 74/124/11 75/125/12 33/58/12
f 54/99/13 52/95/13 50/92/13 57/105/13
f 56/103/13 54/99/13 57/105/13 58/106/13
f 34/60/13 56/103/13 58/106/13 36/65/13
f 57/105/13 50/92/13 48/90/13 59/107/13
f 58/106/13 57/105/13 59/107/13 60/108/13
f 36/65/13 58/106/13 60/108/13 38/69/13
f 59/107/13 48/90/13 46/87/13 44/83/13
f 60/108/13 59/107/13 44/83/13 42/79/13
f 38/69/13 60/108/13 42/79/13 40/74/13
f 51/93/14 53/98/14 61/109/14 49/91/14
f 53/98/14 55/102/14 62/110/14 61/109/14
f 55/102/14 33/59/14 35/64/14 62/110/14
f 49/91/14 61/109/14 63/111/14 47/89/14
f 61/109/14 62/110/14 64/112/14 63/111/14
f 62/110/14 35/64/14 37/68/14 64/112/14
f 47/89/14 63/111/14 43/82/14 45/86/14
f 63/111/14 64/112/14 41/78/14 43/82/14
f 64/112/14 37/68/14 39/73/14 41/78/14
f 2/3/13 4/6/13 50/92/13 52/95/13
f 4/6/13 6/8/13 48/90/13 50/92/13
f 6/8/13 8/11/13 46/87/13 48/90/13
f 82/134/21 7/9/21 45/85/21 81/133/21
f 7/10/14 5/7/14 47/89/14 45/86/14
f 5/7/14 3/5/14 49/91/14 47/89/14
f 3/5/14 1/1/14 51/93/14 49/91/14
f 1/2/22 71/121/22 72/122/22 51/94/22
f 65/113/5 104/160/5 85/137/6 66/115/6
f 67/116/7 66/115/6 85/137/6 86/138/7
f 68/117/8 67/116/7 86/138/7 87/139/8
f 69/119/10 68/118/9 87/140/9 88/141/10
f 70/120/11 69/119/10 88/141/10 89/142/11
f 71/121/12 70/120/11 89/142/11 90/143/12
f 72/122/22 71/121/22 90/143/22 91/144/22
f 73/123/20 72/122/9 91/144/9 92/145/20
f 74/124/11 73/123/20 92/145/20 93/146/11
f 75/125/12 74/124/11 93/146/11 94/147/12
f 76/127/16 75/126/15 94/148/15 95/149/16
f 77/128/17 76/127/16 95/149/16 96/150/17
f 78/129/18 77/128/17 96/150/17 97/151/18
f 79/131/19 78/130/1 97/152/1 98/153/19
f 80/132/3 79/131/19 98/153/19 99/154/3
f 81/133/4 80/132/3 99/154/3 100/155/4
f 101/156/21 82/134/21 81/133/21 100/155/21
f 83/135/2 82/134/1 101/156/1 102/157/2
f 84/136/3 83/135/2 102/157/2 103/158/3
f 65/114/4 84/136/3 103/158/3 104/159/4
f 86/138/7 85/137/6 16/30/6 18/34/7
f 87/139/8 86/138/7 18/34/7 20/39/8
f 88/141/10 87/140/9 20/40/9 22/44/10
f 89/142/11 88/141/10 22/44/10 24/48/11
f 90/143/12 89/142/11 24/48/11 2/4/12
f 91/144/22 90/143/22 2/4/22 52/96/22
f 92/145/20 91/144/9 52/96/9 54/100/20
f 93/146/11 92/145/20 54/100/20 56/104/11
f 94/147/12 93/146/11 56/104/11 34/61/12
f 95/149/16 94/148/15 34/62/15 36/66/16
f 96/150/17 95/149/16 36/66/16 38/70/17
f 97/151/18 96/150/17 38/70/17 40/75/18
f 98/153/19 97/152/1 40/76/1 42/80/19
f 99/154/3 98/153/19 42/80/19 44/84/3
f 100/155/4 99/154/3 44/84/3 46/88/4
f 8/12/21 101/156/21 100/155/21 46/88/21
f 102/157/2 101/156/1 8/12/1 10/16/2
f 103/158/3 102/157/2 10/16/2 12/20/3
f 104/159/4 103/158/3 12/20/3 14/25/4
f 85/137/6 104/160/5 14/26/5 16/30/6
f 111/169/1 186/294/1 187/295/2 113/173/2
f 113/173/2 187/295/2 188/296/3 115/177/3
f 115/177/3 188/296/3 169/274/4 117/181/4
f 117/182/5 169/273/5 170/275/6 119/187/6
f 119/187/6 170/275/6 171/276/7 121/191/7
f 121/191/7 171/276/7 172/277/8 123/195/8
f 123/196/9 172/278/9 173/279/10 125/201/10
f 125/201/10 173/279/10 174/280/11 127/205/11
f 127/205/11 174/280/11 175/281/12 105/162/12
f 126/203/13 124/198/13 122/193/13 129/209/13
f 128/207/13 126/203/13 129/209/13 130/210/13
f 106/163/13 128/207/13 130/210/13 108/166/13
f 129/209/13 122/193/13 120/189/13 131/211/13
f 130/210/13 129/209/13 131/211/13 132/212/13
f 108/166/13 130/210/13 132/212/13 110/168/13
f 131/211/13 120/189/13 118/184/13 116/179/13
f 132/212/13 131/211/13 116/179/13 114/175/13
f 110/168/13 132/212/13 114/175/13 112/171/13
f 123/197/14 125/202/14 133/213/14 121/192/14
f 125/202/14 127/206/14 134/214/14 133/213/14
f 127/206/14 105/161/14 107/165/14 134/214/14
f 121/192/14 133/213/14 135/215/14 119/188/14
f 133/213/14 134/214/14 136/216/14 135/215/14
f 134/214/14 107/165/14 109/167/14 136/216/14
f 119/188/14 135/215/14 115/178/14 117/183/14
f 135/215/14 136/216/14 113/174/14 115/178/14
f 136/216/14 109/167/14 111/170/14 113/174/14
f 137/217/15 179/286/15 180/287/16 139/223/16
f 139/223/16 180/287/16 181/288/17 141/227/17
f 141/227/17 181/288/17 182/289/18 143/231/18
f 143/232/1 182/290/1 183/291/19 145/237/19
f 145/237/19 183/291/19 184/292/3 147/241/3
f 147/241/3 184/292/3 185/293/4 149/245/4
f 155/254/9 176/282/9 177/283/20 157/257/20
f 157/257/20 177/283/20 178/284/11 159/261/11
f 159/261/11 178/284/11 179/285/12 137/218/12
f 158/259/13 156/255/13 154/252/13 161/265/13
f 160/263/13 158/259/13 161/265/13 162/266/13
f 138/220/13 160/263/13 162/266/13 140/225/13
f 161/265/13 154/252/13 152/250/13 163/267/13
f 162/266/13 161/265/13 163/267/13 164/268/13
f 140/225/13 162/266/13 164/268/13 142/229/13
f 163/267/13 152/250/13 150/247/13 148/243/13
f 164/268/13 163/267/13 148/243/13 146/239/13
f 142/229/13 164/268/13 146/239/13 144/234/13
f 155/253/14 157/258/14 165/269/14 153/251/14
f 157/258/14 159/262/14 166/270/14 165/269/14
f 159/262/14 137/219/14 139/224/14 166/270/14
f 153/251/14 165/269/14 167/271/14 151/249/14
f 165/269/14 166/270/14 168/272/14 167/271/14
f 166/270/14 139/224/14 141/228/14 168/272/14
f 151/249/14 167/271/14 147/242/14 149/246/14
f 167/271/14 168/272/14 145/238/14 147/242/14
f 168/272/14 141/228/14 143/233/14 145/238/14
f 106/163/13 108/166/13 154/252/13 156/255/13
f 108/166/13 110/168/13 152/250/13 154/252/13
f 110/168/13 112/171/13 150/247/13 152/250/13
f 186/294/21 111/169/21 149/245/21 185/293/21
f 111/170/14 109/167/14 151/249/14 149/246/14
f 109/167/14 107/165/14 153/251/14 151/249/14
f 107/165/14 105/161/14 155/253/14 153/251/14
f 105/162/22 175/281/22 176/282/22 155/254/22
f 169/273/5 208/320/5 189/297/6 170/275/6
f 171/276/7 170/275/6 189/297/6 190/298/7
f 172/277/8 171/276/7 190/298/7 191/299/8
f 173/279/10 172/278/9 191/300/9 192/301/10
f 174/280/11 173/279/10 192/301/10 193/302/11
f 175/281/12 174/280/11 193/302/11 194/303/12
f 176/282/22 175/281/22 194/303/22 195/304/22
f 177/283/20 176/282/9 195/304/9 196/305/20
f 178/284/11 177/283/20 196/305/20 197/306/11
f 179/285/12 178/284/11 197/306/11 198/307/12
f 180/287/16 179/286/15 198/308/15 199/309/16
f 181/288/17 180/287/16 199/309/16 200/310/17
f 182/289/18 181/288/17 200/310/17 201/311/18
f 183/291/19 182/290/1 201/312/1 202/313/19
f 184/292/3 183/291/19 202/313/19 203/314/3
f 185/293/4 184/292/3 203/314/3 204/315/4
f 205/316/21 186/294/21 185/293/21 204/315/21
f 187/295/2 186/294/1 205/316/1 206/317/2
f 188/296/3 187/295/2 206/317/2 207/318/3
f 169/274/4 188/296/3 207/318/3 208/319/4
f 190/298/7 189/297/6 120/190/6 122/194/7
f 191/299/8 190/298/7 122/194/7 124/199/8
f 192/301/10 191/300/9 124/200/9 126/204/10
f 193/302/11 192/301/10 126/204/10 128/208/11
f 194/303/12 193/302/11 128/208/11 106/164/12
f 195/304/22 194/303/22 106/164/22 156/256/22
f 196/305/20 195/304/9 156/256/9 158/260/20
f 197/306/11 196/305/20 158/260/20 160/264/11
f 198/307/12 197/306/11 160/264/11 138/221/12
f 199/309/16 198/308/15 138/222/15 140/226/16
f 200/310/17 199/309/16 140/226/16 142/230/17
f 201/311/18 200/310/17 142/230/17 144/235/18
f 202/313/19 201/312/1 144/236/1 146/240/19
f 203/314/3 202/313/19 146/240/19 148/244/3
f 204/315/4 203/314/3 148/244/3 150/248/4
f 112/172/21 205/316/21 204/315/21 150/248/21
f 206/317/2 205/316/1 112/172/1 114/176/2
f 207/318/3 206/317/2 114/176/2 116/180/3
f 208/319/4 207/318/3 116/180/3 118/185/4
f 189/297/6 208/320/5 118/186/5 120/190/6
