# Blender 3.5.1
# www.blender.org
mtllib h_link.mtl
o h_link
v 0.416803 0.036821 0.081503
v 0.416803 0.036821 0.054913
v 0.403450 0.011954 0.081503
v 0.403450 0.011954 0.054913
v 0.403380 -0.012951 0.081503
v 0.403380 -0.012951 0.054913
v 0.416592 -0.037893 0.081503
v 0.416592 -0.037893 0.054913
v 0.441459 -0.051246 0.081503
v 0.441459 -0.051246 0.054913
v 0.466364 -0.051316 0.081503
v 0.466364 -0.051316 0.054913
v 0.491306 -0.038104 0.081503
v 0.491306 -0.038104 0.054913
v 0.504659 -0.013237 0.081503
v 0.504659 -0.013237 0.054913
v 0.504730 0.011668 0.081503
v 0.504730 0.011668 0.054913
v 0.491517 0.036610 0.081503
v 0.491517 0.036610 0.054913
v 0.466650 0.049963 0.081503
v 0.466650 0.049963 0.054913
v 0.441745 0.050034 0.081503
v 0.441745 0.050034 0.054913
v 0.470982 0.016191 0.054913
v 0.437222 0.016286 0.054913
v 0.470887 -0.017569 0.054913
v 0.437127 -0.017474 0.054913
v 0.470982 0.016191 0.081503
v 0.437222 0.016286 0.081503
v 0.470887 -0.017569 0.081503
v 0.437127 -0.017474 0.081503
v -0.037506 0.038104 0.081503
v -0.037506 0.038104 0.054913
v -0.050859 0.013237 0.081503
v -0.050859 0.013237 0.054913
v -0.050930 -0.011668 0.081503
v -0.050930 -0.011668 0.054913
v -0.037717 -0.036610 0.081503
v -0.037717 -0.036610 0.054913
v -0.012850 -0.049963 0.081503
v -0.012850 -0.049963 0.054913
v 0.012055 -0.050034 0.081503
v 0.012055 -0.050034 0.054913
v 0.036997 -0.036821 0.081503
v 0.036997 -0.036821 0.054913
v 0.050350 -0.011954 0.081503
v 0.050350 -0.011954 0.054913
v 0.050420 0.012951 0.081503
v 0.050420 0.012951 0.054913
v 0.037208 0.037893 0.081503
v 0.037208 0.037893 0.054913
v 0.012341 0.051246 0.081503
v 0.012341 0.051246 0.054913
v -0.012564 0.051316 0.081503
v -0.012564 0.051316 0.054913
v 0.016673 0.017474 0.054913
v -0.017087 0.017569 0.054913
v 0.016578 -0.016286 0.054913
v -0.017182 -0.016191 0.054913
v 0.016673 0.017474 0.081503
v -0.017087 0.017569 0.081503
v 0.016578 -0.016286 0.081503
v -0.017182 -0.016191 0.081503
v 0.491306 -0.038104 0.078887
v 0.504659 -0.013237 0.078887
v 0.504730 0.011668 0.078887
v 0.491517 0.036610 0.078887
v 0.466650 0.049963 0.078887
v 0.441745 0.050034 0.078887
v 0.416803 0.036821 0.078887
v 0.037208 0.037893 0.078887
v 0.012341 0.051246 0.078887
v -0.012564 0.051316 0.078887
v -0.037506 0.038104 0.078887
v -0.050859 0.013237 0.078887
v -0.050930 -0.011668 0.078887
v -0.037717 -0.036610 0.078887
v -0.012850 -0.049963 0.078887
v 0.012055 -0.050034 0.078887
v 0.036997 -0.036821 0.078887
v 0.416592 -0.037893 0.078887
v 0.441459 -0.051246 0.078887
v 0.466364 -0.051316 0.078887
v 0.504659 -0.013237 0.057090
v 0.504730 0.011668 0.057090
v 0.491517 0.036610 0.057090
v 0.466650 0.049963 0.057090
v 0.441745 0.050034 0.057090
v 0.416803 0.036821 0.057090
v 0.037208 0.037893 0.057090
v 0.012341 0.051246 0.057090
v -0.012564 0.051316 0.057090
v -0.037506 0.038104 0.057090
v -0.050859 0.013237 0.057090
v -0.050930 -0.011668 0.057090
v -0.037717 -0.036610 0.057090
v -0.012850 -0.049963 0.057090
v 0.012055 -0.050034 0.057090
v 0.036997 -0.036821 0.057090
v 0.416592 -0.037893 0.057090
v 0.441459 -0.051246 0.057090
v 0.466364 -0.051316 0.057090
v 0.491306 -0.038104 0.057090
v 0.416803 0.036821 -0.054913
v 0.416803 0.036821 -0.081503
v 0.403450 0.011954 -0.054913
v 0.403450 0.011954 -0.081503
v 0.403380 -0.012951 -0.054913
v 0.403380 -0.012951 -0.081503
v 0.416592 -0.037893 -0.054913
v 0.416592 -0.037893 -0.081503
v 0.441459 -0.051246 -0.054913
v 0.441459 -0.051246 -0.081503
v 0.466364 -0.051316 -0.054913
v 0.466364 -0.051316 -0.081503
v 0.491306 -0.038104 -0.054913
v 0.491306 -0.038104 -0.081503
v 0.504659 -0.013237 -0.054913
v 0.504659 -0.013237 -0.081503
v 0.504730 0.011668 -0.054913
v 0.504730 0.011668 -0.081503
v 0.491517 0.036610 -0.054913
v 0.491517 0.036610 -0.081503
v 0.466650 0.049963 -0.054913
v 0.466650 0.049963 -0.081503
v 0.441745 0.050034 -0.054913
v 0.441745 0.050034 -0.081503
v 0.470982 0.016191 -0.081503
v 0.437222 0.016286 -0.081503
v 0.470887 -0.017569 -0.081503
v 0.437127 -0.017474 -0.081503
v 0.470982 0.016191 -0.054913
v 0.437222 0.016286 -0.054913
v 0.470887 -0.017569 -0.054913
v 0.437127 -0.017474 -0.054913
v -0.037506 0.038104 -0.054913
v -0.037506 0.038104 -0.081503
v -0.050859 0.013237 -0.054913
v -0.050859 0.013237 -0.081503
v -0.050930 -0.011668 -0.054913
v -0.050930 -0.011668 -0.081503
v -0.037717 -0.036610 -0.054913
v -0.037717 -0.036610 -0.081503
v -0.012850 -0.049963 -0.054913
v -0.012850 -0.049963 -0.081503
v 0.012055 -0.050034 -0.054913
v 0.012055 -0.050034 -0.081503
v 0.036997 -0.036821 -0.054913
v 0.036997 -0.036821 -0.081503
v 0.050350 -0.011954 -0.054913
v 0.050350 -0.011954 -0.081503
v 0.050420 0.012951 -0.054913
v 0.050420 0.012951 -0.081503
v 0.037208 0.037893 -0.054913
v 0.037208 0.037893 -0.081503
v 0.012341 0.051246 -0.054913
v 0.012341 0.051246 -0.081503
v -0.012564 0.051316 -0.054913
v -0.012564 0.051316 -0.081503
v 0.016673 0.017474 -0.081503
v -0.017087 0.017569 -0.081503
v 0.016578 -0.016286 -0.081503
v -0.017182 -0.016191 -0.081503
v 0.016673 0.017474 -0.054913
v -0.017087 0.017569 -0.054913
v 0.016578 -0.016286 -0.054913
v -0.017182 -0.016191 -0.054913
v 0.491306 -0.038104 -0.057529
v 0.504659 -0.013237 -0.057529
v 0.504730 0.011668 -0.057529
v 0.491517 0.036610 -0.057529
v 0.466650 0.049963 -0.057529
v 0.441745 0.050034 -0.057529
v 0.416803 0.036821 -0.057529
v 0.037208 0.037893 -0.057529
v 0.012341 0.051246 -0.057529
v -0.012564 0.051316 -0.057529
v -0.037506 0.038104 -0.057529
v -0.050859 0.013237 -0.057529
v -0.050930 -0.011668 -0.057529
v -0.037717 -0.036610 -0.057529
v -0.012850 -0.049963 -0.057529
v 0.012055 -0.050034 -0.057529
v 0.036997 -0.036821 -0.057529
v 0.416592 -0.037893 -0.057529
v 0.441459 -0.051246 -0.057529
v 0.466364 -0.051316 -0.057529
v 0.504659 -0.013237 -0.079326
v 0.504730 0.011668 -0.079326
v 0.491517 0.036610 -0.079326
v 0.466650 0.049963 -0.079326
v 0.441745 0.050034 -0.079326
v 0.416803 0.036821 -0.079326
v 0.037208 0.037893 -0.079326
v 0.012341 0.051246 -0.079326
v -0.012564 0.051316 -0.079326
v -0.037506 0.038104 -0.079326
v -0.050859 0.013237 -0.079326
v -0.050930 -0.011668 -0.079326
v -0.037717 -0.036610 -0.079326
v -0.012850 -0.049963 -0.079326
v 0.012055 -0.050034 -0.079326
v 0.036997 -0.036821 -0.079326
v 0.416592 -0.037893 -0.079326
v 0.441459 -0.051246 -0.079326
v 0.466364 -0.051316 -0.079326
v 0.491306 -0.038104 -0.079326
vn -0.4731 -0.8810 -0.0000
vn -0.2453 -0.9695 -0.0000
vn 0.2398 -0.9708 -0.0000
vn 0.4681 -0.8837 -0.0000
vn 0.8810 -0.4731 -0.0000
vn 0.9695 -0.2453 -0.0000
vn 0.9708 0.2398 -0.0000
vn 0.8837 0.4681 -0.0000
vn 0.4731 0.8810 -0.0000
vn 0.2453 0.9695 -0.0000
vn -0.2398 0.9708 -0.0000
vn -0.4681 0.8837 -0.0000
vn -0.0000 -0.0000 -1.0000
vn -0.0000 -0.0000 1.0000
vn -0.8810 0.4731 -0.0000
vn -0.9695 0.2453 -0.0000
vn -0.9708 -0.2398 -0.0000
vn -0.8837 -0.4681 -0.0000
vn -0.0028 -1.0000 -0.0000
vn 0.0028 1.0000 -0.0000
vt 0.375000 0.000000
vt 0.375000 1.000000
vt 0.625000 0.000000
vt 0.625000 1.000000
vt 0.375000 0.083333
vt 0.625000 0.083333
vt 0.375000 0.166667
vt 0.625000 0.166667
vt 0.375000 0.250000
vt 0.625000 0.250000
vt 0.375000 0.333333
vt 0.291667 0.250000
vt 0.708333 0.250000
vt 0.625000 0.333333
vt 0.375000 0.416667
vt 0.208333 0.250000
vt 0.791667 0.250000
vt 0.625000 0.416667
vt 0.375000 0.500000
vt 0.125000 0.250000
vt 0.875000 0.250000
vt 0.625000 0.500000
vt 0.375000 0.583333
vt 0.125000 0.166667
vt 0.875000 0.166667
vt 0.625000 0.583333
vt 0.375000 0.666667
vt 0.125000 0.083333
vt 0.875000 0.083333
vt 0.625000 0.666667
vt 0.375000 0.750000
vt 0.125000 0.000000
vt 0.875000 0.000000
vt 0.625000 0.750000
vt 0.375000 0.833333
vt 0.208333 0.000000
vt 0.791667 0.000000
vt 0.625000 0.833333
vt 0.375000 0.916667
vt 0.291667 0.000000
vt 0.708333 0.000000
vt 0.625000 0.916667
vt 0.791667 0.083333
vt 0.708333 0.083333
vt 0.791667 0.166667
vt 0.708333 0.166667
vt 0.208333 0.083333
vt 0.291667 0.083333
vt 0.208333 0.166667
vt 0.291667 0.166667
vt 0.375000 1.000000
vt 0.375000 0.000000
vt 0.625000 1.000000
vt 0.625000 0.000000
vt 0.375000 0.083333
vt 0.625000 0.083333
vt 0.375000 0.166667
vt 0.625000 0.166667
vt 0.375000 0.250000
vt 0.625000 0.250000
vt 0.375000 0.333333
vt 0.291667 0.250000
vt 0.708333 0.250000
vt 0.625000 0.333333
vt 0.375000 0.416667
vt 0.208333 0.250000
vt 0.791667 0.250000
vt 0.625000 0.416667
vt 0.375000 0.500000
vt 0.125000 0.250000
vt 0.875000 0.250000
vt 0.625000 0.500000
vt 0.125000 0.166667
vt 0.875000 0.166667
vt 0.125000 0.083333
vt 0.875000 0.083333
vt 0.125000 0.000000
vt 0.375000 0.750000
vt 0.875000 0.000000
vt 0.625000 0.750000
vt 0.375000 0.833333
vt 0.208333 0.000000
vt 0.791667 0.000000
vt 0.625000 0.833333
vt 0.375000 0.916667
vt 0.291667 0.000000
vt 0.708333 0.000000
vt 0.625000 0.916667
vt 0.791667 0.083333
vt 0.708333 0.083333
vt 0.791667 0.166667
vt 0.708333 0.166667
vt 0.208333 0.083333
vt 0.291667 0.083333
vt 0.208333 0.166667
vt 0.291667 0.166667
vt 0.399594 0.500000
vt 0.399594 0.583333
vt 0.399594 0.666667
vt 0.399594 0.750000
vt 0.399594 0.833333
vt 0.399594 0.916667
vt 0.399594 1.000000
vt 0.399594 0.750000
vt 0.399594 0.833333
vt 0.399594 0.916667
vt 0.399594 1.000000
vt 0.399594 0.000000
vt 0.399594 0.083333
vt 0.399594 0.166667
vt 0.399594 0.250000
vt 0.399594 0.333333
vt 0.399594 0.416667
vt 0.399594 0.500000
vt 0.399594 0.250000
vt 0.399594 0.333333
vt 0.399594 0.416667
vt 0.604530 0.583333
vt 0.604530 0.666667
vt 0.604530 0.750000
vt 0.604530 0.833333
vt 0.604530 0.916667
vt 0.604530 1.000000
vt 0.604530 0.750000
vt 0.604530 0.833333
vt 0.604530 0.916667
vt 0.604530 1.000000
vt 0.604530 0.000000
vt 0.604530 0.083333
vt 0.604530 0.166667
vt 0.604530 0.250000
vt 0.604530 0.333333
vt 0.604530 0.416667
vt 0.604530 0.500000
vt 0.604530 0.250000
vt 0.604530 0.333333
vt 0.604530 0.416667
vt 0.604530 0.500000
vt 0.375000 0.000000
vt 0.375000 1.000000
vt 0.625000 0.000000
vt 0.625000 1.000000
vt 0.375000 0.083333
vt 0.625000 0.083333
vt 0.375000 0.166667
vt 0.625000 0.166667
vt 0.375000 0.250000
vt 0.625000 0.250000
vt 0.375000 0.333333
vt 0.291667 0.250000
vt 0.708333 0.250000
vt 0.625000 0.333333
vt 0.375000 0.416667
vt 0.208333 0.250000
vt 0.791667 0.250000
vt 0.625000 0.416667
vt 0.375000 0.500000
vt 0.125000 0.250000
vt 0.875000 0.250000
vt 0.625000 0.500000
vt 0.375000 0.583333
vt 0.125000 0.166667
vt 0.875000 0.166667
vt 0.625000 0.583333
vt 0.375000 0.666667
vt 0.125000 0.083333
vt 0.875000 0.083333
vt 0.625000 0.666667
vt 0.375000 0.750000
vt 0.125000 0.000000
vt 0.875000 0.000000
vt 0.625000 0.750000
vt 0.375000 0.833333
vt 0.208333 0.000000
vt 0.791667 0.000000
vt 0.625000 0.833333
vt 0.375000 0.916667
vt 0.291667 0.000000
vt 0.708333 0.000000
vt 0.625000 0.916667
vt 0.791667 0.083333
vt 0.708333 0.083333
vt 0.791667 0.166667
vt 0.708333 0.166667
vt 0.208333 0.083333
vt 0.291667 0.083333
vt 0.208333 0.166667
vt 0.291667 0.166667
vt 0.375000 1.000000
vt 0.375000 0.000000
vt 0.625000 1.000000
vt 0.625000 0.000000
vt 0.375000 0.083333
vt 0.625000 0.083333
vt 0.375000 0.166667
vt 0.625000 0.166667
vt 0.375000 0.250000
vt 0.625000 0.250000
vt 0.375000 0.333333
vt 0.291667 0.250000
vt 0.708333 0.250000
vt 0.625000 0.333333
vt 0.375000 0.416667
vt 0.208333 0.250000
vt 0.791667 0.250000
vt 0.625000 0.416667
vt 0.375000 0.500000
vt 0.125000 0.250000
vt 0.875000 0.250000
vt 0.625000 0.500000
vt 0.125000 0.166667
vt 0.875000 0.166667
vt 0.125000 0.083333
vt 0.875000 0.083333
vt 0.125000 0.000000
vt 0.375000 0.750000
vt 0.875000 0.000000
vt 0.625000 0.750000
vt 0.375000 0.833333
vt 0.208333 0.000000
vt 0.791667 0.000000
vt 0.625000 0.833333
vt 0.375000 0.916667
vt 0.291667 0.000000
vt 0.708333 0.000000
vt 0.625000 0.916667
vt 0.791667 0.083333
vt 0.708333 0.083333
vt 0.791667 0.166667
vt 0.708333 0.166667
vt 0.208333 0.083333
vt 0.291667 0.083333
vt 0.208333 0.166667
vt 0.291667 0.166667
vt 0.399594 0.500000
vt 0.399594 0.583333
vt 0.399594 0.666667
vt 0.399594 0.750000
vt 0.399594 0.833333
vt 0.399594 0.916667
vt 0.399594 1.000000
vt 0.399594 0.750000
vt 0.399594 0.833333
vt 0.399594 0.916667
vt 0.399594 1.000000
vt 0.399594 0.000000
vt 0.399594 0.083333
vt 0.399594 0.166667
vt 0.399594 0.250000
vt 0.399594 0.333333
vt 0.399594 0.416667
vt 0.399594 0.500000
vt 0.399594 0.250000
vt 0.399594 0.333333
vt 0.399594 0.416667
vt 0.604530 0.583333
vt 0.604530 0.666667
vt 0.604530 0.750000
vt 0.604530 0.833333
vt 0.604530 0.916667
vt 0.604530 1.000000
vt 0.604530 0.750000
vt 0.604530 0.833333
vt 0.604530 0.916667
vt 0.604530 1.000000
vt 0.604530 0.000000
vt 0.604530 0.083333
vt 0.604530 0.166667
vt 0.604530 0.250000
vt 0.604530 0.333333
vt 0.604530 0.416667
vt 0.604530 0.500000
vt 0.604530 0.250000
vt 0.604530 0.333333
vt 0.604530 0.416667
vt 0.604530 0.500000
s 1
f 7/9/1 82/115/1 83/116/2 9/11/2
f 9/11/2 83/116/2 84/117/3 11/15/3
f 11/15/3 84/117/3 65/97/4 13/19/4
f 13/19/5 65/97/5 66/98/6 15/23/6
f 15/23/6 66/98/6 67/99/7 17/27/7
f 17/27/7 67/99/7 68/100/8 19/31/8
f 19/31/9 68/100/9 69/101/10 21/35/10
f 21/35/10 69/101/10 70/102/11 23/39/11
f 23/39/11 70/102/11 71/103/12 1/2/12
f 22/37/13 20/33/13 18/29/13 25/43/13
f 24/41/13 22/37/13 25/43/13 26/44/13
f 2/3/13 24/41/13 26/44/13 4/6/13
f 25/43/13 18/29/13 16/25/13 27/45/13
f 26/44/13 25/43/13 27/45/13 28/46/13
f 4/6/13 26/44/13 28/46/13 6/8/13
f 27/45/13 16/25/13 14/21/13 12/17/13
f 28/46/13 27/45/13 12/17/13 10/13/13
f 6/8/13 28/46/13 10/13/13 8/10/13
f 19/32/14 21/36/14 29/47/14 17/28/14
f 21/36/14 23/40/14 30/48/14 29/47/14
f 23/40/14 1/1/14 3/5/14 30/48/14
f 17/28/14 29/47/14 31/49/14 15/24/14
f 29/47/14 30/48/14 32/50/14 31/49/14
f 30/48/14 3/5/14 5/7/14 32/50/14
f 15/24/14 31/49/14 11/16/14 13/20/14
f 31/49/14 32/50/14 9/12/14 11/16/14
f 32/50/14 5/7/14 7/9/14 9/12/14
f 33/52/15 75/108/15 76/109/16 35/55/16
f 35/55/16 76/109/16 77/110/17 37/57/17
f 37/57/17 77/110/17 78/111/18 39/59/18
f 39/59/1 78/111/1 79/112/2 41/61/2
f 41/61/2 79/112/2 80/113/3 43/65/3
f 43/65/3 80/113/3 81/114/4 45/69/4
f 51/78/9 72/104/9 73/105/10 53/81/10
f 53/81/10 73/105/10 74/106/11 55/85/11
f 55/85/11 74/106/11 75/107/12 33/51/12
f 54/83/13 52/79/13 50/76/13 57/89/13
f 56/87/13 54/83/13 57/89/13 58/90/13
f 34/54/13 56/87/13 58/90/13 36/56/13
f 57/89/13 50/76/13 48/74/13 59/91/13
f 58/90/13 57/89/13 59/91/13 60/92/13
f 36/56/13 58/90/13 60/92/13 38/58/13
f 59/91/13 48/74/13 46/71/13 44/67/13
f 60/92/13 59/91/13 44/67/13 42/63/13
f 38/58/13 60/92/13 42/63/13 40/60/13
f 51/77/14 53/82/14 61/93/14 49/75/14
f 53/82/14 55/86/14 62/94/14 61/93/14
f 55/86/14 33/52/14 35/55/14 62/94/14
f 49/75/14 61/93/14 63/95/14 47/73/14
f 61/93/14 62/94/14 64/96/14 63/95/14
f 62/94/14 35/55/14 37/57/14 64/96/14
f 47/73/14 63/95/14 43/66/14 45/70/14
f 63/95/14 64/96/14 41/62/14 43/66/14
f 64/96/14 37/57/14 39/59/14 41/62/14
f 2/3/13 4/6/13 50/76/13 52/79/13
f 4/6/13 6/8/13 48/74/13 50/76/13
f 6/8/13 8/10/13 46/71/13 48/74/13
f 82/115/19 7/9/19 45/69/19 81/114/19
f 7/9/14 5/7/14 47/73/14 45/70/14
f 5/7/14 3/5/14 49/75/14 47/73/14
f 3/5/14 1/1/14 51/77/14 49/75/14
f 1/2/20 71/103/20 72/104/20 51/78/20
f 65/97/5 104/138/5 85/118/6 66/98/6
f 67/99/7 66/98/6 85/118/6 86/119/7
f 68/100/8 67/99/7 86/119/7 87/120/8
f 69/101/10 68/100/9 87/120/9 88/121/10
f 70/102/11 69/101/10 88/121/10 89/122/11
f 71/103/12 70/102/11 89/122/11 90/123/12
f 72/104/20 71/103/20 90/123/20 91/124/20
f 73/105/10 72/104/9 91/124/9 92/125/10
f 74/106/11 73/105/10 92/125/10 93/126/11
f 75/107/12 74/106/11 93/126/11 94/127/12
f 76/109/16 75/108/15 94/128/15 95/129/16
f 77/110/17 76/109/16 95/129/16 96/130/17
f 78/111/18 77/110/17 96/130/17 97/131/18
f 79/112/2 78/111/1 97/131/1 98/132/2
f 80/113/3 79/112/2 98/132/2 99/133/3
f 81/114/4 80/113/3 99/133/3 100/134/4
f 101/135/19 82/115/19 81/114/19 100/134/19
f 83/116/2 82/115/1 101/135/1 102/136/2
f 84/117/3 83/116/2 102/136/2 103/137/3
f 65/97/4 84/117/3 103/137/3 104/138/4
f 86/119/7 85/118/6 16/26/6 18/30/7
f 87/120/8 86/119/7 18/30/7 20/34/8
f 88/121/10 87/120/9 20/34/9 22/38/10
f 89/122/11 88/121/10 22/38/10 24/42/11
f 90/123/12 89/122/11 24/42/11 2/4/12
f 91/124/20 90/123/20 2/4/20 52/80/20
f 92/125/10 91/124/9 52/80/9 54/84/10
f 93/126/11 92/125/10 54/84/10 56/88/11
f 94/127/12 93/126/11 56/88/11 34/53/12
f 95/129/16 94/128/15 34/54/15 36/56/16
f 96/130/17 95/129/16 36/56/16 38/58/17
f 97/131/18 96/130/17 38/58/17 40/60/18
f 98/132/2 97/131/1 40/60/1 42/64/2
f 99/133/3 98/132/2 42/64/2 44/68/3
f 100/134/4 99/133/3 44/68/3 46/72/4
f 8/10/19 101/135/19 100/134/19 46/72/19
f 102/136/2 101/135/1 8/10/1 10/14/2
f 103/137/3 102/136/2 10/14/2 12/18/3
f 104/138/4 103/137/3 12/18/3 14/22/4
f 85/118/6 104/138/5 14/22/5 16/26/6
f 111/147/1 186/253/1 187/254/2 113/149/2
f 113/149/2 187/254/2 188/255/3 115/153/3
f 115/153/3 188/255/3 169/235/4 117/157/4
f 117/157/5 169/235/5 170/236/6 119/161/6
f 119/161/6 170/236/6 171/237/7 121/165/7
f 121/165/7 171/237/7 172/238/8 123/169/8
f 123/169/9 172/238/9 173/239/10 125/173/10
f 125/173/10 173/239/10 174/240/11 127/177/11
f 127/177/11 174/240/11 175/241/12 105/140/12
f 126/175/13 124/171/13 122/167/13 129/181/13
f 128/179/13 126/175/13 129/181/13 130/182/13
f 106/141/13 128/179/13 130/182/13 108/144/13
f 129/181/13 122/167/13 120/163/13 131/183/13
f 130/182/13 129/181/13 131/183/13 132/184/13
f 108/144/13 130/182/13 132/184/13 110/146/13
f 131/183/13 120/163/13 118/159/13 116/155/13
f 132/184/13 131/183/13 116/155/13 114/151/13
f 110/146/13 132/184/13 114/151/13 112/148/13
f 123/170/14 125/174/14 133/185/14 121/166/14
f 125/174/14 127/178/14 134/186/14 133/185/14
f 127/178/14 105/139/14 107/143/14 134/186/14
f 121/166/14 133/185/14 135/187/14 119/162/14
f 133/185/14 134/186/14 136/188/14 135/187/14
f 134/186/14 107/143/14 109/145/14 136/188/14
f 119/162/14 135/187/14 115/154/14 117/158/14
f 135/187/14 136/188/14 113/150/14 115/154/14
f 136/188/14 109/145/14 111/147/14 113/150/14
f 137/190/15 179/246/15 180/247/16 139/193/16
f 139/193/16 180/247/16 181/248/17 141/195/17
f 141/195/17 181/248/17 182/249/18 143/197/18
f 143/197/1 182/249/1 183/250/2 145/199/2
f 145/199/2 183/250/2 184/251/3 147/203/3
f 147/203/3 184/251/3 185/252/4 149/207/4
f 155/216/9 176/242/9 177/243/10 157/219/10
f 157/219/10 177/243/10 178/244/11 159/223/11
f 159/223/11 178/244/11 179/245/12 137/189/12
f 158/221/13 156/217/13 154/214/13 161/227/13
f 160/225/13 158/221/13 161/227/13 162/228/13
f 138/192/13 160/225/13 162/228/13 140/194/13
f 161/227/13 154/214/13 152/212/13 163/229/13
f 162/228/13 161/227/13 163/229/13 164/230/13
f 140/194/13 162/228/13 164/230/13 142/196/13
f 163/229/13 152/212/13 150/209/13 148/205/13
f 164/230/13 163/229/13 148/205/13 146/201/13
f 142/196/13 164/230/13 146/201/13 144/198/13
f 155/215/14 157/220/14 165/231/14 153/213/14
f 157/220/14 159/224/14 166/232/14 165/231/14
f 159/224/14 137/190/14 139/193/14 166/232/14
f 153/213/14 165/231/14 167/233/14 151/211/14
f 165/231/14 166/232/14 168/234/14 167/233/14
f 166/232/14 139/193/14 141/195/14 168/234/14
f 151/211/14 167/233/14 147/204/14 149/208/14
f 167/233/14 168/234/14 145/200/14 147/204/14
f 168/234/14 141/195/14 143/197/14 145/200/14
f 106/141/13 108/144/13 154/214/13 156/217/13
f 108/144/13 110/146/13 152/212/13 154/214/13
f 110/146/13 112/148/13 150/209/13 152/212/13
f 186/253/19 111/147/19 149/207/19 185/252/19
f 111/147/14 109/145/14 151/211/14 149/208/14
f 109/145/14 107/143/14 153/213/14 151/211/14
f 107/143/14 105/139/14 155/215/14 153/213/14
f 105/140/20 175/241/20 176/242/20 155/216/20
f 169/235/5 208/276/5 189/256/6 170/236/6
f 171/237/7 170/236/6 189/256/6 190/257/7
f 172/238/8 171/237/7 190/257/7 191/258/8
f 173/239/10 172/238/9 191/258/9 192/259/10
f 174/240/11 173/239/10 192/259/10 193/260/11
f 175/241/12 174/240/11 193/260/11 194/261/12
f 176/242/20 175/241/20 194/261/20 195/262/20
f 177/243/10 176/242/9 195/262/9 196/263/10
f 178/244/11 177/243/10 196/263/10 197/264/11
f 179/245/12 178/244/11 197/264/11 198/265/12
f 180/247/16 179/246/15 198/266/15 199/267/16
f 181/248/17 180/247/16 199/267/16 200/268/17
f 182/249/18 181/248/17 200/268/17 201/269/18
f 183/250/2 182/249/1 201/269/1 202/270/2
f 184/251/3 183/250/2 202/270/2 203/271/3
f 185/252/4 184/251/3 203/271/3 204/272/4
f 205/273/19 186/253/19 185/252/19 204/272/19
f 187/254/2 186/253/1 205/273/1 206/274/2
f 188/255/3 187/254/2 206/274/2 207/275/3
f 169/235/4 188/255/3 207/275/3 208/276/4
f 190/257/7 189/256/6 120/164/6 122/168/7
f 191/258/8 190/257/7 122/168/7 124/172/8
f 192/259/10 191/258/9 124/172/9 126/176/10
f 193/260/11 192/259/10 126/176/10 128/180/11
f 194/261/12 193/260/11 128/180/11 106/142/12
f 195/262/20 194/261/20 106/142/20 156/218/20
f 196/263/10 195/262/9 156/218/9 158/222/10
f 197/264/11 196/263/10 158/222/10 160/226/11
f 198/265/12 197/264/11 160/226/11 138/191/12
f 199/267/16 198/266/15 138/192/15 140/194/16
f 200/268/17 199/267/16 140/194/16 142/196/17
f 201/269/18 200/268/17 142/196/17 144/198/18
f 202/270/2 201/269/1 144/198/1 146/202/2
f 203/271/3 202/270/2 146/202/2 148/206/3
f 204/272/4 203/271/3 148/206/3 150/210/4
f 112/148/19 205/273/19 204/272/19 150/210/19
f 206/274/2 205/273/1 112/148/1 114/152/2
f 207/275/3 206/274/2 114/152/2 116/156/3
f 208/276/4 207/275/3 116/156/3 118/160/4
f 189/256/6 208/276/5 118/160/5 120/164/6
